<?xml version="1.0" encoding="UTF-8"?>
<svg id="Layer_2" data-name="Layer 2" xmlns="http://www.w3.org/2000/svg" version="1.1" viewBox="0 0 192.1 242.2">
  <defs>
    <style>
      .cls-1 {
        stroke: #000;
      }

      .cls-1, .cls-2, .cls-3, .cls-4, .cls-5 {
        stroke-linecap: round;
        stroke-linejoin: round;
      }

      .cls-1, .cls-3, .cls-5 {
        stroke-width: 5.3px;
      }

      .cls-1, .cls-5 {
        fill: none;
      }

      .cls-2 {
        stroke-width: 5.3px;
      }

      .cls-2, .cls-3, .cls-4 {
        fill: #b30000;
      }

      .cls-2, .cls-3, .cls-4, .cls-5 {
        stroke: #b30000;
      }

      .cls-4 {
        stroke-width: 5.3px;
      }
    </style>
  </defs>
  <g id="_ÎÓÈ_3" data-name=" ÎÓÈ 3">
    <g>
      <g>
        <g>
          <line class="cls-1" x1="113.9" y1="139.3" x2="113.9" y2="126.4"/>
          <line class="cls-1" x1="77.5" y1="139.3" x2="77.5" y2="125.9"/>
        </g>
        <g>
          <path class="cls-1" d="M93.8,148.7l-20.8-11.5c-1.7-.9-3.8-.4-4.8,1.2l-2.1,3.2c-.7,1-.8,2.3-.3,3.4l8.8,20.4c1,2.3,3.9,2.9,5.7,1.3l14-12.1c1.9-1.7,1.6-4.7-.6-5.9h0Z"/>
          <path class="cls-1" d="M98.8,156.3l-1.8-1.6c-1.9-1.7-1.6-4.7.6-5.9l20.8-11.5c1.7-.9,3.8-.4,4.8,1.2l2.1,3.2c.7,1,.8,2.3.3,3.4l-8.8,20.4c-1,2.3-3.9,2.9-5.7,1.3l-12.2-10.6"/>
        </g>
        <polyline class="cls-1" points="81.4 166.4 86.5 172.6 84.4 210.8"/>
        <polyline class="cls-1" points="106.8 210.8 104.7 172.6 109.9 166.3"/>
        <path class="cls-1" d="M57.7,84.8h0c-2.5,6.9.6,14.6,7.2,17.9l1,.5.4,2.9c1.2,8.6,6.2,16.2,13.6,20.8h0c4.7,2.9,10.1,4.5,15.6,4.5h.2-.3.2c5.5,0,11-1.6,15.6-4.5h0c7.4-4.6,12.3-12.2,13.6-20.8l.4-2.9,1-.5c6.6-3.3,9.7-11,7.2-17.9h0"/>
        <g>
          <path class="cls-3" d="M163.6,175.5c.7,3,1.1,6.2,1.1,9.4v24.3"/>
          <path class="cls-3" d="M135.5,146.2h0c1.7.5,3.3,1.1,4.9,1.7"/>
          <line class="cls-5" x1="138.7" y1="175.5" x2="138.7" y2="209.3"/>
          <rect class="cls-4" x="148.2" y="147" width="13.7" height="25.8" rx="3.9" ry="3.9" transform="translate(-64.2 120.8) rotate(-35.8)"/>
        </g>
        <g>
          <path class="cls-3" d="M28.5,175.5c-.7,3-1.1,6.2-1.1,9.4v24.3"/>
          <path class="cls-3" d="M56.6,146.2h0c-1.7.5-3.3,1.1-4.9,1.7"/>
          <line class="cls-5" x1="53.4" y1="175.5" x2="53.4" y2="209.3"/>
          <rect class="cls-2" x="24.1" y="153" width="25.8" height="13.7" rx="3.9" ry="3.9" transform="translate(-114.4 96.5) rotate(-54.2)"/>
        </g>
        <line class="cls-1" x1="62.3" y1="187.6" x2="77.1" y2="187.6"/>
      </g>
      <path class="cls-1" d="M132.8,69l1.8,5c1.4,3.9-.6,8.2-4.5,9.6h0c-22,8.1-46.3,8.1-68.3,0-3-1.1-4.9-4-4.9-7.1s.1-1.7.5-2.6l1.8-5"/>
      <path class="cls-5" d="M136.2,43.8l6.3,4.4c9.4,6.5,4.6,20.8-7,20.8H56.5c-11.6,0-16.4-14.3-7-20.8l6.3-4.4c24-16.6,56.4-16.6,80.4,0h0Z"/>
    </g>
  </g>
</svg>