<?xml version="1.0" encoding="utf-8"?>
<!-- Generator: Adobe Illustrator 22.1.0, SVG Export Plug-In . SVG Version: 6.00 Build 0)  -->
<svg version="1.1" id="Layer_1" xmlns="http://www.w3.org/2000/svg" xmlns:xlink="http://www.w3.org/1999/xlink" x="0px" y="0px"
	 viewBox="0 0 160.7 53.1" style="enable-background:new 0 0 160.7 53.1;" xml:space="preserve">
<style type="text/css">
	.st0{fill:#5091CD;}
</style>
<title>Asset 7</title>
<g id="Layer_2_1_">
	<g id="Layer_1-2">
		<rect x="4.7" y="3.2" class="st0" width="18.5" height="46.7"/>
		<polygon class="st0" points="26.7,3.2 52.7,3.2 60.3,30.3 60.5,30.3 68.1,3.2 94.1,3.2 94.1,49.9 77.3,49.9 77.3,16.5 77.2,16.5 
			67.4,49.9 53.4,49.9 43.6,16.5 43.5,16.5 43.5,49.9 26.7,49.9 		"/>
		<path class="st0" d="M124.1,1.5c-11.2,0-31.9,0.8-31.9,25s20.7,25,31.9,25s31.9-0.8,31.9-25S135.3,1.5,124.1,1.5 M144,18.8
			c0.1,1.5-0.1,3.1-0.6,4.6c-0.5,1.5-1.2,2.8-2.2,4c-0.1,0-0.1,0-0.2,0c-0.2-1.4-1.2-2.3-1.7-3.5c-0.5-1.2-0.7-2.4-0.6-3.7
			c0.2-0.1,0.3,0.2,0.5,0.3c1,1.3,1.7,2.8,2,4.4c0.1,0.1,0.1,0.2,0.2,0.2c0.3-0.2,0.2-0.8,0.3-1.2c0.3-1.9,1-3.7,2-5.4
			C143.9,18.4,143.9,18.8,144,18.8 M141,19c0.1-0.1,0.1-0.1,0.1-0.3c-0.1-1.3,0-2.6,0.2-3.9c0.1-0.3,0.2-0.7,0.3-1
			c0-0.1,0.2,0,0.2,0.1c0.7,1.8,0.9,3.7,0.6,5.6c-0.2,0.9-0.5,1.8-0.6,2.6c0,0.1-0.1,0.2-0.2,0.3c-0.3,0-0.3-0.4-0.4-0.6
			c-0.5-0.7-1-1.3-1.5-1.9c-0.5-0.8-0.9-1.7-1.1-2.7c0-0.1,0-0.2,0.1-0.2c0.4,0,0.6,0.3,0.8,0.5c0.5,0.5,0.9,1,1.3,1.5
			C140.8,19.1,140.9,19.1,141,19 M139.1,11l0.2,0.2c0.6,0.9,1.1,1.8,1.2,2.9c0.1,0.7,0,1.4,0,2.1l0.1,0.9c0,0-0.1,0.1-0.2,0
			c-1.8-0.9-3.3-2.3-4.4-3.9c-0.1-0.2-0.3-0.3-0.1-0.5h0.3c1.2,0.5,2.2,1.4,3,2.4c0.1,0,0.2,0,0.2-0.1c0.1-0.1,0-0.3,0-0.4
			c-0.4-1.2-0.6-2.5-0.5-3.8C139,10.9,139.1,10.9,139.1,11 M134.6,9.1c0.4,0.1,0.7,0.2,1,0.4c0.9,0.6,1.7,1.3,2.4,2.2
			c0.4,0.6,0.8,1.3,0.9,2.1l0,0c-1.1-0.6-2.1-1.5-2.9-2.5c-0.5-0.6-1-1.3-1.3-2C134.6,9.3,134.5,9.2,134.6,9.1 M114.4,12.4
			c0.6,0,1.1,0.2,1.5,0.6h0.1l0.9-0.5c0-0.2-0.2-0.5-0.1-0.8c0.2-0.2,0.4-0.4,0.7-0.4l2.3-0.6c0.2,0,0.4,0.1,0.5,0.3
			c0.1,0.1,0,0.3,0.2,0.4l1.5-0.3c0.1-0.2,0-0.4,0.1-0.5c0.1-0.2,0.3-0.4,0.5-0.4h2.7c0.2,0.1,0.3,0.2,0.4,0.4l0,0.5l0.2,0.1
			l1.2,0.2c0.5-0.1,0.2-0.9,0.8-0.7l2.8,0.9c0.3,0.3,0,0.6,0,0.9c0.2,0.3,0.6,0.4,0.9,0.5c0.1,0,0.2-0.2,0.3-0.2
			c0.8-0.7,1.9-0.6,2.6,0.2c0.3,0.4,0.5,0.9,0.4,1.4c-0.1,0.7-0.5,1.3-1.1,1.5c-0.4,0.1-0.7,0.2-1.1,0.1c-0.2,0-0.5,0.1-0.6,0.3
			c-0.1,0.2-0.2,0.4-0.2,0.6l0.1,0.3l1.1,1.2v0.1l-0.9,0.9h-0.1l-1.4-1.4c-0.4,0.3-0.7,0.7-1,0.9c1.6,2.2,1.8,5.1,0.7,7.5
			c-0.1,0.3-0.3,0.6-0.5,0.9l2.8,2.7c0.6-0.7,0.9-1.6,0.8-2.4c0-0.3,0-0.6-0.1-0.9c-0.1-0.1-0.2-0.1-0.2,0c-0.3,0.3-0.6,0.7-0.8,1.1
			l0,0c-0.4-1.4-0.3-3,0.3-4.4c0.3-0.7,0.7-1.4,1.2-2.1c1.1,1.1,1.8,2.6,2,4.1c0.2,1.3,0.1,2.6-0.4,3.8c-0.7,1.4-1,2.9-0.8,4.4
			c-1.5-0.4-3.1-0.1-4.4,0.8c-2,1.1-4.4,1-6.3-0.2h-0.1c-1.5,0.9-3.4,1.2-5.1,0.7c-0.7-0.2-1.4-0.6-2.1-1c-1.1-0.4-2.4-0.5-3.5-0.3
			c0.2-1.3,0-2.6-0.5-3.8c-0.7-1.2-0.9-2.6-0.7-4c0.1-1.7,0.8-3.3,2-4.5c1,1.4,1.7,3,1.7,4.7c0,0.6-0.1,1.2-0.3,1.7
			c-0.3-0.4-0.4-0.9-0.9-1.1c-0.1,0-0.2,0.1-0.2,0.2c-0.2,1,0,2.1,0.5,3l0.3,0.3l2.7-2.7c-1.4-2.1-1.6-4.8-0.6-7.1
			c0.3-0.5,0.6-1.1,0.9-1.5c-0.3-0.3-0.6-0.6-0.9-0.8H117l-1.4,1.4h-0.1l-0.9-0.9v-0.1c0.4-0.6,1.4-1.2,1.1-1.9
			c-0.1-0.4-0.4-0.6-0.8-0.7c-0.8,0.1-1.6-0.2-2-0.9c-0.2-0.5-0.3-1-0.1-1.5c0.3-0.7,0.9-1.2,1.6-1.2 M108.7,13.2
			c0.5-1.3,1.3-2.4,2.4-3.2c0.5-0.4,1-0.7,1.6-0.9c0.1,0,0.2,0,0.2,0.1c-0.2,0.5-0.4,0.9-0.7,1.3c-0.8,1.1-1.7,2-2.7,2.8
			c-0.3,0.2-0.6,0.4-0.9,0.5c0-0.1,0-0.3,0-0.4 M106.7,14.2c0.1-1,0.5-2,1.1-2.8c0.2-0.2,0.5-0.7,0.5-0.6c0.2,0,0,2.5-0.4,3.5
			c0,0.2-0.3,0.9,0,0.8c0.3-0.1,0.4-0.4,0.6-0.6c0.7-0.8,1.7-1.4,2.7-1.8c0.1,0,0.2,0,0.2,0.1c0,0.3-0.2,0.4-0.3,0.6
			c-0.5,0.6-1,1.2-1.6,1.8l-0.2,0.2c-0.8,0.6-1.7,1.2-2.6,1.7c-0.1,0-0.1,0-0.1-0.1C106.8,16.2,106.6,15.2,106.7,14.2 M105.3,14.7
			l0.3-0.9c0-0.2,0.3-0.2,0.3,0c0.3,1.1,0.4,2.2,0.5,3.3c0.1,0.6,0.1,1.1,0,1.7c0,0.1,0,0.3,0.2,0.2s0.3-0.3,0.5-0.5
			c0.4-0.6,1-1.1,1.6-1.5c0.1,0,0.1,0,0.2,0.1c-0.1,0.7-0.3,1.3-0.6,1.9c-0.5,1.3-1.8,2-2.2,3.3c0,0.1-0.1,0.1-0.2,0.1
			c0,0,0,0-0.1,0l-0.1-0.2c-0.2-1-0.4-2-0.7-3C104.7,17.7,104.8,16.1,105.3,14.7 M103.6,18.5L103.6,18.5c1.2,1.9,1.9,4.1,2.2,6.3
			c0,0.1,0,0.3,0.2,0.3c0.2,0,0.2-0.2,0.2-0.3c0.3-1.6,1-3.2,2.1-4.4c0.1-0.1,0.2-0.2,0.3-0.2h0.1c0.1,1.5-0.2,3.1-0.9,4.5
			c-0.7,0.8-1.1,1.7-1.3,2.7c0,0-0.1,0.1-0.2,0.1c-1.8-2.3-2.8-5-2.8-7.9C103.4,19.1,103.3,18.8,103.6,18.5 M103,23.8
			c0.2,0.2,0.4,0.5,0.6,0.7c1,1.5,1.9,3.1,2.6,4.7c0.2,0.4,0.5,0.8,0.7,1.3c0.1,0.1,0.3,0.2,0.3,0v-0.1c-0.2-2.1,0.3-4.2,1.4-6
			c0,0,0.1,0,0.2,0c0.5,1.6,0.5,3.3,0,4.9c-0.4,0.9-0.6,1.9-0.6,2.9c0,0.2,0.1,0.6,0,0.8c-0.1,0.2-0.2,0-0.3-0.1
			c-0.6-0.6-1.1-1.1-1.7-1.8c-0.6-0.6-1.2-1.3-1.7-2c-0.9-1.6-1.4-3.4-1.5-5.2C103,23.9,103,23.8,103,23.8 M103.5,30
			c1,0.8,2,1.6,2.8,2.6c0.9,0.9,1.9,1.8,2.8,2.7c0.3,0.3,0.6,0.5,0.9,0.6c0.2,0,0.2-0.1,0.1-0.3c-1-1.9-1.3-4.1-0.7-6.2
			c0,0,0.1,0,0.1,0l0.2,0.3c0.6,1.3,1,2.8,0.9,4.2c0.1,1.1,0.3,2.1,0.8,3.1c0,0.1-0.1,0-0.2,0c-1.1-0.5-2.2-0.9-3.3-1.3
			c-2.3-1.1-4-3.2-4.6-5.7C103.4,30,103.4,30,103.5,30 M106.1,36.6c-0.2-0.3-0.4-0.5-0.6-0.9c0-0.1,0.1,0,0.2,0
			c0.9,0.4,1.8,0.7,2.7,1l5.2,1.7c0.3,0,0.5,0,0.8,0c0-0.1,0-0.1,0-0.2c-1.2-1-2.1-2.3-2.7-3.8c-0.2-0.4-0.3-0.8-0.3-1.2
			c0-0.1,0.1-0.1,0.1-0.1c0,0,0,0,0,0c0.1,0.1,0.2,0.2,0.3,0.3l0,0l0,0c1.2,1,2.2,2.2,3.1,3.4c0.4,0.6,0.9,1.1,1.4,1.6
			c0,0.1-0.1,0.2-0.2,0.2c-2.1,0.9-4.4,1-6.5,0.3C108.2,38.5,107,37.6,106.1,36.6 M136.4,41.1c-1.4,0.7-3,1-4.6,0.9
			c-1.8-0.1-3.1-0.9-4.6-1.4c-0.5-0.2-1-0.2-1.5-0.2c0,0-0.1,0.1,0,0.1c1.2,0.7,2.3,1.5,3.2,2.6c0,0.1,0.1,0.2,0,0.2
			c-0.3,0.2-0.4,0.5-0.8,0.6l-0.1-0.1c-0.6-1.1-1.4-2-2.4-2.6c-0.8-0.4-1.7-1.2-2.8-0.7c-1.5,0.5-2.7,1.6-3.4,2.9
			c-0.2,0.1-0.2,0.5-0.5,0.4c-0.3-0.1-0.4-0.5-0.7-0.6c-0.1-0.1,0.1-0.2,0.2-0.3c0.9-1,1.9-1.8,3-2.5c0,0,0.1-0.1,0-0.2
			c-0.3-0.1-0.7-0.1-1,0c-1.4,0.4-2.6,1.2-4.1,1.5c-1.1,0.2-2.2,0.2-3.3,0c-0.7-0.2-1.4-0.5-2-0.7c-0.2-0.1-0.5-0.3-0.7-0.4
			c0-0.1,0-0.1,0-0.2c0.2-0.1,0.4,0.1,0.6,0.1c1.1,0.2,2.2,0.1,3.2-0.2c1.4-0.7,2.9-1.1,4.5-1.2c1.6,0,3.2,0.2,4.7,0.5
			c0.8,0,1.5-0.1,2.3-0.3c1.5-0.3,3.1-0.3,4.6,0c1,0.2,2,0.6,2.9,1c1.2,0.3,2.5,0.4,3.7,0.1c0.1,0,0.1,0,0.1,0.1
			C136.8,40.9,136.5,40.9,136.4,41.1 M140.2,37.6c-1.3,1.2-2.9,1.8-4.6,1.9c-1.6,0.1-3.2-0.2-4.6-0.8v-0.1c1-0.7,1.5-1.9,2.4-2.8
			c0.7-0.8,1.4-1.5,2.2-2.2c0.2-0.2,0.2-0.2,0.3-0.3c0.1-0.1,0.1-0.1,0.2-0.1c0.1,0,0.1,0,0.1,0.1c-0.1,0.7-0.3,1.5-0.7,2.1
			c-0.6,1.1-1.4,2-2.3,2.8c-0.1,0,0,0.2,0,0.2c0.3,0.1,0.7,0.1,1,0l5-1.6c0.9-0.3,1.9-0.7,2.8-1.1h0.1c-0.4,0.7-1,1.4-1.7,1.9
			 M144,30.3c-0.7,2.6-2.6,4.8-5.1,5.8c-1,0.3-2,0.6-2.9,1.1c-0.2,0.1-0.1-0.2,0-0.3c0.4-0.8,0.7-1.6,0.8-2.5
			c-0.1-1.7,0.3-3.4,1.2-4.9h0.1c0.6,1.9,0.4,3.9-0.5,5.7c-0.1,0.2-0.3,0.6-0.2,0.7c0,0.1,0.1,0.1,0.1,0c0.6-0.3,1.2-0.8,1.6-1.3
			l3.9-3.8c0.3-0.2,0.6-0.5,0.9-0.7c0.1,0,0.1,0.2,0,0.2 M141.8,30.6c-0.3,0.3-0.5,0.6-0.7,0.8c-0.6,0.6-1,1.2-1.7,1.7
			c-0.1,0-0.1,0-0.2,0c0-0.4,0-0.7,0-1.1c0-1.8-0.9-3-0.9-4.9c0-0.8,0-1.6,0.2-2.4c0-0.1,0.1-0.3,0.2-0.3l0.1,0.1
			c0.8,1.5,1.3,3.1,1.3,4.8v1.1c0,0.1,0,0.1,0.1,0.1c0,0,0.1,0,0.1-0.1c1.1-1.6,1.7-3.5,2.7-5.1c0.4-0.6,0.8-1.1,1.2-1.6
			c0.1,0,0.1,0.2,0.1,0.3C144.1,26.7,143.5,29,141.8,30.6"/>
		<path class="st0" d="M123.2,21c0-0.1-0.1-0.2-0.1-0.1c-0.3,0.1-0.6,0.2-0.8,0.4c-0.2,0.2,0,0.3,0.1,0.4c0.3,0,0.4-0.3,0.7-0.3
			C123.1,21.2,123.2,21.1,123.2,21"/>
		<path class="st0" d="M124.2,21.1c0,0.1,0.1,0.2,0.2,0.2c0.1-0.1,0.1-0.2,0.1-0.3l-0.2,0C124.2,20.9,124.2,21,124.2,21.1"/>
		<path class="st0" d="M124,20.4c0.6,0.1,1.2,0.3,1.7,0.7h0.1l0.6-0.6c-0.7-0.6-1.5-1-2.5-1.1L124,20.4z"/>
		<path class="st0" d="M123.6,22.3c-0.3-0.2-0.7,0-0.9,0.3c-0.3,0.3-0.4,0.8-0.2,1.2c0,0.1,0.1,0.2,0.3,0.2c0.1-0.1,0.2-0.3,0.3-0.5
			c0.1-0.1,0.3,0,0.4,0.1c0.1,0.1,0.1,0.2,0,0.3c-0.2,0.2-0.4,0.2-0.6,0.3c-0.2,0.1,0,0.1,0,0.2c0.3,0.3,0.7,0.4,1,0.3
			c0.2-0.1,0.1-0.4,0.1-0.6c0-0.2,0.6-0.4,0.6-0.7s0.1-0.7-0.2-0.9c-0.2-0.1-0.4-0.1-0.6,0C123.6,22.3,123.6,22.2,123.6,22.3"/>
		<path class="st0" d="M123.4,18c-1.3,0.1-2.5,0.6-3.4,1.4l0.6,0.6c0.8-0.7,1.7-1.1,2.8-1.1V18z"/>
		<path class="st0" d="M123.4,19.4c-0.9,0-1.8,0.4-2.4,1l0.6,0.6h0.2c0.5-0.4,1.1-0.6,1.7-0.7V19.4z"/>
		<path class="st0" d="M120.6,26.1l0.7-0.6c-0.4-0.5-0.6-1.1-0.7-1.8c-0.2,0-0.3,0-0.5,0c0,0.4,0.3,0.8,0.2,1.2
			C120.3,25.4,120.2,25.8,120.6,26.1"/>
		<path class="st0" d="M121,21.3c0.2-0.3-0.2-0.4-0.3-0.6c-0.6,0.6-0.9,1.4-1,2.2c0,0.1,0.1,0.2,0.2,0.1c0.2-0.2,0-0.5,0.1-0.7
			C120.3,22,120.7,21.7,121,21.3"/>
		<path class="st0" d="M128.6,20.9c-0.4-0.3-0.9-0.4-1.3-0.7l-0.2,0.2c0.7,0.8,1.1,1.7,1.1,2.7h0.9
			C129.1,22.4,128.9,21.6,128.6,20.9"/>
		<path class="st0" d="M125.3,17c0-0.1,0-0.2,0-0.2c-0.4-0.1-0.9-0.2-1.3-0.2v0.9c0.5,0,1,0.1,1.6,0.3c0.4,0.2,0.7,0.3,1.1,0.4
			c0.5,0,0.7,0.6,1.1,0.8L128,19c0.2-0.1,0.4-0.3,0.5-0.5c-0.7-0.7-1.6-1.2-2.5-1.5h-0.2c-0.1,0-0.1,0.1-0.1,0.2
			c-0.1,0.2-0.3,0.3-0.6,0.3c-0.1,0-0.1-0.1-0.1-0.2c0,0,0,0,0,0C125,17.1,125.2,17.1,125.3,17"/>
		<path class="st0" d="M124.9,25c-0.1-0.1-0.2-0.1-0.3-0.1c-0.1,0.3-0.4,0.2-0.6,0.3c-0.1,0.1-0.1,0.2,0,0.3
			c0.1,0.1,0.3,0.2,0.5,0.2c0.2,0,0.4-0.1,0.5-0.2C125,25.3,125,25.2,124.9,25"/>
		<path class="st0" d="M124,18.9c1.1,0.1,2.1,0.5,2.8,1.2l0.2-0.2l-0.1-0.3c-0.1-0.2-0.3-0.2-0.5-0.3c-0.1-0.3-0.4-0.5-0.7-0.6
			c-0.1-0.1-0.1-0.3-0.2-0.4c-0.5-0.2-1-0.3-1.6-0.3L124,18.9z"/>
		<path class="st0" d="M127.8,27.8c-1,1-2.4,1.5-3.9,1.6v1c1.7,0,3.3-0.7,4.5-1.9C128.3,28.3,128,28.1,127.8,27.8"/>
		<path class="st0" d="M119.4,19.4l-0.7-0.7c-1.2,1.2-1.8,2.8-1.9,4.5h1C117.9,21.8,118.5,20.4,119.4,19.4"/>
		<path class="st0" d="M133.3,15.5c0.4-0.1,0.8-0.4,0.9-0.8c0.2-0.6-0.2-1.3-0.8-1.5c-0.3-0.1-0.7,0-0.9,0.1
			c-0.1,0.2,0.2,0.3,0.2,0.4c0.1,0.6-0.6,0.1-0.8,0.4c-0.1,0.4,0.1,0.7,0.3,1C132.5,15.5,132.9,15.6,133.3,15.5"/>
		<path class="st0" d="M124,28v0.9c0.2,0,0.3,0,0.5,0c0.2,0,0.1-0.3,0.1-0.4l-0.2-0.3C124.3,28,124.1,28,124,28"/>
		<path class="st0" d="M126.7,26.1c0.6-0.7,0.9-1.5,0.9-2.4h-0.8l-0.1,0.1c-0.1,0.6-0.4,1.2-0.8,1.7
			C126.2,25.7,126.5,25.9,126.7,26.1"/>
		<path class="st0" d="M123.4,30.4v-1c-1.4-0.1-2.8-0.7-3.9-1.7c-0.3,0.2-0.5,0.4-0.7,0.7C120.1,29.6,121.7,30.3,123.4,30.4"/>
		<path class="st0" d="M128.2,23.7c-0.1,1-0.5,2-1.1,2.8c0.2,0.2,0.5,0.5,0.7,0.7c0.9-0.9,1.4-2.2,1.4-3.4H128.2z"/>
		<path class="st0" d="M127.4,23.1c0.1,0,0.3,0.1,0.3-0.1c-0.1-0.9-0.4-1.7-1-2.3l-0.6,0.6c0,0.1,0,0.2,0.1,0.3
			c0.2,0.1,0.6,0.1,0.7,0.3C127.1,22.4,127,22.8,127.4,23.1"/>
		<path class="st0" d="M125.8,28.3c0,0.1,0.1,0.2,0.2,0.2c0.5-0.2,1-0.6,1.5-1l-0.7-0.7c-0.1,0.2-0.3,0.3-0.5,0.4
			c-0.1,0.2-0.2,0.3-0.3,0.4C126,27.8,125.7,28,125.8,28.3"/>
		<path class="st0" d="M122.3,24.5c0-0.1-0.1-0.1-0.1-0.2s-0.1-0.4-0.2-0.5H121c0,0.5,0.3,1,0.6,1.4L122.3,24.5z"/>
		<path class="st0" d="M117.9,12.2c0.1,0.1,0.1,0.2,0.2,0.4c-0.1,0.2-0.4,0.1-0.5,0.3c0,0.1,0,0.3,0.1,0.4c0.8-0.2,1.6-0.4,2.3-0.7
			c0-0.1,0-0.3-0.1-0.4c-0.2-0.2-0.4,0.1-0.6,0.1c-0.2,0-0.1-0.2-0.2-0.4c0.2-0.2,0.4-0.2,0.6-0.2v-0.2c0-0.1,0-0.3-0.2-0.3
			l-2.2,0.6c-0.2,0.1,0,0.3,0,0.4S117.7,12.1,117.9,12.2"/>
		<path class="st0" d="M122.5,11.5L122.5,11.5c-0.2,0.2-0.2,0.4-0.1,0.5h2.5l0.1-0.1c0-0.1,0.1-0.4-0.1-0.5c-0.2,0-0.4,0-0.6,0
			c0-0.1,0-0.3,0-0.4c0.2-0.1,0.5,0,0.7-0.1c0-0.1,0.1-0.3-0.1-0.3c-0.8,0-1.7,0-2.5,0c-0.1,0-0.1,0.2-0.1,0.3
			c0,0.1,0.4,0.1,0.6,0.1s0.1,0.2,0.1,0.3C123.1,11.5,122.7,11.5,122.5,11.5"/>
		<path class="st0" d="M129.7,13.2c0.1,0,0.2,0,0.3-0.1c0-0.1,0.1-0.2,0-0.3c-0.1-0.1-0.6-0.1-0.5-0.4c0-0.1,0-0.2,0.2-0.3
			c0.2,0.1,0.4,0.2,0.6,0.2c0-0.1,0.2-0.3,0.1-0.4c-0.8-0.3-1.6-0.5-2.4-0.8c-0.1,0.1-0.1,0.2-0.1,0.3c0.2,0.1,0.5,0.2,0.7,0.3
			l0.1,0.1c0,0.1,0,0.3-0.2,0.4c-0.3,0-0.7-0.4-0.9,0c-0.1,0.1,0,0.2,0.1,0.3L129.7,13.2z"/>
		<path class="st0" d="M128.3,19.6c0.9,1,1.4,2.3,1.4,3.6h0.9c-0.1-1.6-0.7-3.2-1.8-4.4C128.6,19.1,128,19.2,128.3,19.6"/>
		<path class="st0" d="M117,15.4c0.8,0.2,1.3-0.7,1.9-1.2l0.1-0.1l0.9,0.8c0,0,0.2,0.1,0.1,0.2l-1.3,1.3l0.8,0.9h0
			c0.3-0.2,0.6-0.4,0.9-0.6c2.4-1.2,5.3-0.9,7.5,0.7l1-1l-1.3-1.2v-0.1l0.9-0.9h0.1c0.4,0.4,0.8,0.9,1.3,1.3
			c0.3,0.2,0.7,0.1,0.9-0.1c0.3-0.3,0.4-0.7,0.3-1.1c0-0.2,0.2-0.3,0.1-0.6c-0.2-0.1-0.5-0.3-0.7-0.3c-0.2,0-0.1,0.2-0.2,0.3
			c-0.1,0.1-0.3,0.2-0.5,0.2l-2.8-0.9c-0.4-0.2-0.1-0.6-0.1-0.9l-0.1-0.1l-1.2-0.2c-0.2,0,0,0.3-0.1,0.4c-0.1,0.2-0.2,0.3-0.4,0.4
			c-0.9,0-1.9,0-2.8,0c-0.2-0.1-0.3-0.2-0.4-0.4c0-0.1,0-0.3-0.1-0.4c-0.4,0-0.7,0.1-1.1,0.2c-0.5,0,0,0.5-0.2,0.7
			c-0.1,0.2-0.2,0.3-0.3,0.4l-2.7,0.9c-0.2,0.1-0.4-0.1-0.5-0.2c-0.1-0.1-0.1-0.3-0.2-0.4l-0.7,0.4c0.1,0.4,0,0.9,0.2,1.3
			C116.5,15.2,116.7,15.3,117,15.4"/>
		<path class="st0" d="M123.4,28c-1.1-0.1-2.1-0.5-2.9-1.2l-0.6,0.6c0.9,0.9,2.2,1.5,3.5,1.5L123.4,28z"/>
		<path class="st0" d="M114.5,15.4c0.4,0,0.8-0.2,1-0.6c0.1-0.3,0.3-0.6,0-0.9c-0.1-0.1-0.3,0-0.4,0c-0.5-0.1,0.1-0.5-0.1-0.7
			c-0.6-0.3-1.3-0.1-1.6,0.5c-0.3,0.6-0.1,1.3,0.5,1.6C114.1,15.3,114.3,15.4,114.5,15.4"/>
		<path class="st0" d="M119.7,19.1c1-0.9,2.4-1.5,3.8-1.6v-0.9c-1.6,0.1-3.2,0.7-4.4,1.8L119.7,19.1z"/>
		<path class="st0" d="M123.3,25.1c-0.3-0.1-0.5-0.2-0.7-0.4l-0.7,0.7c0.2,0.2,0.5,0.3,0.8,0.5c0.3,0,0.5-0.3,0.8-0.6
			C123.5,25.2,123.5,25.2,123.3,25.1"/>
		<path class="st0" d="M123.4,27.2c-0.3-0.2-0.5-0.5-0.7-0.8c-0.4-0.2-0.8-0.4-1.1-0.7l-0.7,0.7c0.7,0.6,1.6,1,2.5,1.1V27.2z"/>
		<path class="st0" d="M128.1,27.5c0.2,0.2,0.4,0.5,0.7,0.7c1.1-1.2,1.8-2.8,1.8-4.5h-0.9C129.6,25.1,129,26.5,128.1,27.5"/>
		<path class="st0" d="M119.3,27.4c-0.5-0.5-0.8-1.1-1.1-1.8h-0.4c-0.3-0.2,0.2-0.4,0.2-0.6c-0.1-0.4-0.1-0.8-0.2-1.3h-1
			c0.1,1.6,0.7,3.2,1.8,4.4L119.3,27.4z"/>
		<path class="st0" d="M126.9,30.1c-2.5,1.2-5.5,0.9-7.7-0.8l-2.4,2.4c0.6,0.7,1.5,1.2,2.5,1.2c0.3,0.1,0.5,0.1,0.8,0
			c0-0.3-0.1-0.7-0.3-0.9c0-0.1-0.2-0.2-0.2-0.3c1.4-0.6,3-0.4,4.3,0.5c1.3-0.9,2.9-1.1,4.3-0.5c-0.1,0.1-0.3,0.2-0.3,0.4
			c-0.1,0.2-0.3,0.5-0.2,0.9c0.4,0,0.8,0,1.2-0.1c0.8-0.1,1.5-0.6,2-1.3l-2.5-2.4C127.8,29.6,127.4,29.9,126.9,30.1"/>
		<path class="st0" d="M120.4,20.4l-0.6-0.6c-0.9,0.9-1.4,2.2-1.5,3.4h0.9C119.2,22.2,119.6,21.2,120.4,20.4"/>
		<path class="st0" d="M118.2,23.7c0,0.4,0.1,0.7,0.2,1.1c0,0.2,0.2,0.1,0.3,0.1c0.3-0.1,0.2-0.5,0.3-0.7c-0.1-0.2,0.1-0.3,0-0.5
			H118.2z"/>
		<path class="st0" d="M119.7,27c0.1,0,0.2-0.1,0.2-0.2s-0.2-0.1-0.2-0.1c-0.1,0-0.1,0.1-0.1,0.2C119.5,27,119.6,27,119.7,27"/>
		<path class="st0" d="M122.4,22.2L122.4,22.2c0.1-0.1,0.3-0.1,0.4-0.2c0.1-0.1-0.1,0-0.1,0S122.4,22,122.4,22.2"/>
	</g>
</g>
</svg>
